# xmcd
#
# Track frame offsets:
#	150
#	2845
#	21085
#	48595
#	61860
#	103650
#	129885
#	148645
#	180875
#
# Disc length: 2656 seconds
#
# Revision: 0
# Processed by: cddbd v1.5.1PL2 Copyright (c) Steve Scherf et al.
# Submitted via: EasyCDDAExtractor 8.0.2.1
#
DISCID=6b0a5e09
DTITLE=Dio - NEC Arena Birmingham 30-05-90 Disc 1
DYEAR=1990
DGENRE=Hard Rock
TTITLE0=Intro
TTITLE1=Wild One
TTITLE2=Children Of The Sea
TTITLE3=Man On The Silver Mountian
TTITLE4=Rainbow Medley
TTITLE5=Born On The Sun
TTITLE6=Stand Up And Shout
TTITLE7=Lock Up The Wolves
TTITLE8=Why Are They Watching Me
EXTD=
EXTT0=
EXTT1=
EXTT2=
EXTT3=
EXTT4=
EXTT5=
EXTT6=
EXTT7=
EXTT8=
PLAYORDER=
